<svg width="973" height="487" viewBox="0 0 973 487" fill="none" xmlns="http://www.w3.org/2000/svg">
<path d="M847.552 275.605L791.192 335.573C757.061 369.696 751.179 413.2 751.179 430.091C751.072 431.693 751.028 433.399 751.016 435.144V435.616C751.051 449.991 754.196 468.271 756.076 473.571L760.205 486.551L879.155 365.699C895.945 348.911 904.265 325.721 901.995 302.067C900.244 283.821 892.132 266.617 879.112 253.579L864.363 238.903L858.167 232.372C858.481 233.017 864.261 255.327 847.552 275.605Z" fill="url(#paint0_linear)"/>
<path d="M756.508 13.2909C756.39 13.8695 747.115 48.4482 759.378 91.4522C769.246 126.174 797.39 158.052 797.39 158.052L914.858 275.939C934.69 295.792 929.05 320.853 928.742 321.504H928.802L933.978 315.767L949.09 300.92C962.079 287.928 970.195 270.725 971.935 252.472C972.175 250.024 972.294 247.579 972.306 245.145V244.499C972.215 223.669 963.983 203.733 949.063 188.829L759.098 0.59082L756.508 13.2909Z" fill="url(#paint1_linear)"/>
<path d="M394.432 321.075C394.432 331.273 385.362 339.387 373.905 339.387H353.376V171.454C353.376 160.271 362.034 151.323 373.116 150.919L394.432 150.949V321.075Z" fill="white"/>
<path d="M509.466 183.952L450.091 245.178V245.206L509.466 306.398C517.443 314.348 517.558 326.848 509.895 334.972L509.247 335.536C501.123 343.102 488.711 342.898 480.79 334.996L395.666 245.232L480.79 155.38C488.711 147.463 501.123 147.259 509.247 154.818L509.895 155.38C517.558 163.5 517.443 176.011 509.466 183.952Z" fill="white"/>
<path d="M631.924 304.164C597.603 304.164 569.784 276.341 569.784 242.021C569.784 207.703 597.603 179.881 631.924 179.881C666.244 179.881 694.067 207.703 694.067 242.021C694.067 276.341 666.244 304.164 631.924 304.164ZM631.923 142.976C577.222 142.976 532.879 187.32 532.879 242.02C532.879 296.723 577.222 341.069 631.923 341.069C686.628 341.069 730.971 296.723 730.971 242.02C730.971 187.32 686.628 142.976 631.923 142.976Z" fill="white"/>
<path d="M394.432 321.075C394.432 331.273 385.362 339.387 373.905 339.387H353.376V171.454C353.376 160.271 362.034 151.323 373.116 150.919L394.432 150.949V321.075Z" fill="white"/>
<path d="M509.466 183.952L450.091 245.178V245.206L509.466 306.398C517.443 314.348 517.558 326.848 509.895 334.972L509.247 335.536C501.123 343.102 488.711 342.898 480.79 334.996L395.666 245.232L480.79 155.38C488.711 147.463 501.123 147.259 509.247 154.818L509.895 155.38C517.558 163.5 517.443 176.011 509.466 183.952Z" fill="white"/>
<path d="M318.202 301.691H222.61V150.922H201.266C189.985 151.254 181.16 160.303 181.16 171.654V339.387H299.346C309.685 339.387 318.202 331.272 318.202 321.016V301.691Z" fill="white"/>
<path d="M42.1206 301.692H146.055V321.075C146.055 331.306 137.706 339.388 127.463 339.388H0.943286L0.932617 171.655C0.932617 160.074 10.09 150.923 21.674 150.923H146.055V169.49C146.055 179.731 137.706 187.802 127.463 187.802H42.1206V226.032H114.018C124.241 226.032 132.585 234.383 132.585 244.615C132.585 254.832 124.241 262.927 114.018 262.927H42.1206V301.692Z" fill="white"/>
<path d="M631.924 304.164C597.603 304.164 569.784 276.341 569.784 242.021C569.784 207.703 597.603 179.881 631.924 179.881C666.244 179.881 694.067 207.703 694.067 242.021C694.067 276.341 666.244 304.164 631.924 304.164ZM631.923 142.976C577.222 142.976 532.879 187.32 532.879 242.02C532.879 296.723 577.222 341.069 631.923 341.069C686.628 341.069 730.971 296.723 730.971 242.02C730.971 187.32 686.628 142.976 631.923 142.976Z" fill="white"/>
<defs>
<linearGradient id="paint0_linear" x1="736.009" y1="480.188" x2="895.863" y2="269.588" gradientUnits="userSpaceOnUse">
<stop stop-color="#8CBC30"/>
<stop offset="0.414249" stop-color="#8CBC30"/>
<stop offset="1" stop-color="#1E733D"/>
</linearGradient>
<linearGradient id="paint1_linear" x1="932.098" y1="244.323" x2="769.892" y2="57.7254" gradientUnits="userSpaceOnUse">
<stop stop-color="#8CBC30"/>
<stop offset="0.414249" stop-color="#8CBC30"/>
<stop offset="1" stop-color="#1E733D"/>
</linearGradient>
</defs>
</svg>
